<svg width="456" height="246" viewBox="0 0 456 246" fill="none" xmlns="http://www.w3.org/2000/svg">
<rect width="456" height="246" fill="#F5F5F5"/>
<path d="M25 56C33.5934 83.6483 41 113.157 41 142.333C41 148.825 41 146.127 41 141.444C41 138.037 41 134.63 41 131.222C41 123.085 39.7532 103.388 50.1667 102C60.5884 100.61 71.8819 105.02 76.7778 115C82.2725 126.201 67.4181 132.017 59.3334 135.222C49.1309 139.266 41.5922 146.714 31.7222 151.389C14.7751 159.417 67.2451 139.352 84.8889 133C98.3859 128.141 106.926 113.556 99.2222 100.222C96.1428 94.8923 92.7525 90.8636 88.4445 86.5556C85.8098 83.9209 88.5618 88.6667 89.0556 89.5C91.1547 93.0422 93.5277 96.5276 96.4445 99.4444C99.889 102.889 105.946 98.5115 108.778 95.7778C111.751 92.9074 114.527 90.0903 117.778 87.4444C118.916 86.518 120.222 83.2 121 84.4444C124.727 90.4071 126.737 98.212 128.944 104.833C130.595 109.784 134.494 115.205 134.944 120.389C135.108 122.272 134.536 124.627 135.056 126.444C135.393 127.626 140.951 119.711 141.444 119C149.003 108.115 159 97.9833 159 84.2222C159 80.6852 159 77.1481 159 73.6111C159 67.6294 161 85.4627 161 91.4444C161 103.028 166.535 115.172 170.778 125.778C171.641 127.935 176.394 117.726 176.944 116.556C179.476 111.177 182.46 105.994 184.944 100.611C187.645 94.7598 192.398 90.1101 194.556 83.9444C196.587 78.1401 199.051 73.0517 200.778 67.2222C201.046 66.3161 200.793 62.1701 201.778 61.8889C205.118 60.9347 212.341 96.9522 213.222 100.556C218.841 123.521 227.09 153.682 210.944 174.611C207.148 179.532 202.094 186.291 195.333 185.944C188.306 185.584 180.591 182.752 176.167 177C173.004 172.889 173.709 166.048 174.667 161.333C177.273 148.505 187.705 140.105 195.778 130.444C204.972 119.441 215.566 107.618 226.778 98.4444C234.973 91.7389 236.821 74.7975 232 65.5C229.752 61.1643 227.272 57.2609 224.611 53.1667C221.508 48.3928 223.381 52.9546 224.056 56.7222C225.449 64.5024 225.17 72.8452 228.222 80.2222C230.749 86.3292 236.579 91.7787 239.944 97.5C241.193 99.6233 242.572 101.644 243.778 103.778C245.643 107.078 255.2 96.011 256.222 94.5556C261.568 86.9426 265.104 78.2346 269.778 70.2222C270.975 68.1695 272.883 65.4496 273 63C273.373 55.1684 272.682 47.8608 270.444 40.3333C269.954 38.6843 266.191 28.5478 266.056 29.8333C265.423 35.8446 266.685 42.0059 264.5 47.8333C262.776 52.4315 261.447 55.3896 267 56.7778C273.582 58.4232 279.921 59.1335 285.778 62.7778C291.484 66.3285 297.791 74.303 296.944 81.5C296.612 84.3217 288.849 100.543 286.5 96.8889C276.925 81.9951 289.429 71.348 299.222 61.7778C305.811 55.3384 311.391 45.4683 311.944 36.0556C312.594 25.0055 306.438 16.85 303.556 6.55556C303.431 6.11027 302.186 0.784932 304.222 2.44444C309.809 6.99655 311.646 18.8887 313.778 25.3333C318.65 40.0627 320.603 54.3698 328.222 68.2222C329.992 71.4401 331.969 74.5717 333.444 77.9444C334.954 81.3941 334.055 74.3237 333.944 73.1111C333.407 67.2012 331.424 61.4392 330.944 55.4444C330.377 48.3523 328.923 42.2808 332.222 35.5556C335.413 29.0519 334.378 27 341.778 27C352.861 27 357.236 37.9839 358.056 47C358.648 53.5143 361.797 59.8155 364.778 65.5556C369.435 74.5247 376.445 64.1003 381.778 60.2222C393.399 51.7702 405.395 44.1176 419.167 39.9444C430.244 36.5877 438.78 32 450.444 32C454.858 32 454.558 30.6685 450.444 31.2222C445.498 31.8881 441.108 33.5642 436.778 36C422.003 44.311 407.076 52.4648 392.444 61C381.38 67.4544 371.131 74.6513 360.722 82.1111C343.251 94.6321 324.93 105.421 306.056 115.667C285.453 126.851 263.722 135.077 242.722 145.389C211.741 160.601 180.132 174.496 149.167 189.722C118.21 204.944 87.1688 220.204 54.4445 231.333C38.6869 236.692 20.7936 242.601 4.00002 244C2.47121 244.127 1.70793 243.655 2.00002 242C2.59534 238.627 11.525 242.41 13 243" stroke="black" stroke-width="3" stroke-linecap="round"/>
<path d="M159 67C156.53 66.1018 155.298 63.0768 154 61" stroke="black" stroke-width="3" stroke-linecap="round"/>
<path d="M196 54V53" stroke="black" stroke-width="3" stroke-linecap="round"/>
</svg>
